<?xml version="1.0" encoding="UTF-8"?>
<svg width="155px" height="53px" viewBox="0 0 155 53" version="1.1" xmlns="http://www.w3.org/2000/svg" xmlns:xlink="http://www.w3.org/1999/xlink">
    <!-- Generator: Sketch 42 (36781) - http://www.bohemiancoding.com/sketch -->
    <title>Group-23</title>
    <desc>Created with Sketch.</desc>
    <defs></defs>
    <g id="Page-1" stroke="none" stroke-width="1" fill="none" fill-rule="evenodd">
        <g id="Group-23" fill-rule="nonzero" fill="#32325D">
            <polygon id="Shape" points="32.9362169 0.0332958011 32.9362169 40.4902238 24.8126619 40.4902238 24.8126619 23.4071701 8.20489602 23.4071701 8.20489602 40.4945149 0.0769428031 40.4945149 0.0769428031 0.0332958011 8.20489602 0.0332958011 8.20489602 16.5885385 24.8126619 16.5885385 24.8126619 0.0332958011"></polygon>
            <path d="M65.4216402,25.0549703 L44.1605332,29.4662687 C45.387643,32.2640962 47.630747,34.104998 50.8502609,34.1865297 C53.801482,34.2766438 56.9462258,32.7318311 58.3580619,30.2258016 L65.5096051,28.8526348 C64.5243987,35.0576325 60.1217573,39.1900064 54.3512624,40.3872362 C46.4036372,42.0350365 38.1701261,37.5593708 36.2173062,28.5994572 C34.2644863,19.6395436 39.9646093,12.7565448 47.7319066,11.1430737 C55.266097,9.57251418 63.807485,13.142748 65.4216402,25.0549703 L65.4216402,25.0549703 Z M43.3688494,23.5659425 L56.6119594,20.8196088 C54.9890077,17.6141225 52.2752917,16.7344375 49.3328671,17.3480714 C46.1776631,17.9474744 43.7728705,20.454625 43.3688494,23.5659425 L43.3688494,23.5659425 Z" id="Shape"></path>
            <path d="M97.2033447,24.5614884 L97.2033447,40.4730592 L89.1985423,40.4730592 C89.1985423,36.1819128 89.0929845,31.8907664 89.2205336,27.5996201 C89.3304896,23.8405759 89.2205336,18.3994023 84.1405628,18.1376423 C82.2273271,18.038946 80.2569142,18.4766429 78.787901,19.7425311 C76.9846213,21.2959261 76.3512743,23.7332972 76.2457165,25.9947313 C76.1137692,28.7796853 76.2457165,31.6075508 76.2457165,34.3925048 L76.2457165,40.4859326 L68.3156842,40.4859326 L68.3156842,11.1344915 L74.4732245,11.1344915 L75.4980151,14.7175987 L76.5228058,14.7175987 C77.7851015,13.2500266 80.6131718,10.8555669 85.6711514,10.8555669 C93.4120592,10.8298201 97.2033447,16.4769687 97.2033447,24.5614884 L97.2033447,24.5614884 Z" id="Shape"></path>
            <path d="M119.951058,10.8298201 L119.951058,18.3436174 C119.080464,18.1877477 118.197242,18.1087571 117.312112,18.1076043 C113.098595,18.1076043 108.70475,20.2231395 108.70475,25.6214016 L108.70475,40.4773503 L100.699948,40.4773503 L100.699948,11.1344915 L106.857488,11.1344915 L107.939456,14.3614335 L108.902671,14.3614335 C110.222144,13.0740896 113.173365,10.8384024 118.108194,10.8384024 L119.973049,10.8384024 L119.951058,10.8298201 Z" id="Shape"></path>
            <path d="M154.930285,11.1344915 L144.458068,41.6016307 C142.773541,46.4763729 139.620001,52.8615987 132.340909,52.8615987 C126.926671,52.8615987 123.456458,50.407063 122.55042,49.291365 L126.341705,44.073331 C126.640786,44.3651289 128.980651,46.1116255 131.514039,46.1116255 C134.047427,46.1116255 135.248147,44.8972311 135.912282,42.901848 L136.752347,40.4945149 L132.719158,40.4945149 L122.370092,11.1387826 L130.726753,11.1387826 L138.309325,32.5086915 L139.514443,32.5086915 L146.855111,11.1387826 L154.930285,11.1387826 L154.930285,11.1344915 Z" id="Shape"></path>
        </g>
    </g>
</svg>